<svg width="478" height="43" viewBox="0 0 478 43" fill="none" xmlns="http://www.w3.org/2000/svg">
<mask id="path-1-outside-1_2_15" maskUnits="userSpaceOnUse" x="0" y="0" width="478" height="43" fill="black">
<rect fill="white" width="478" height="43"/>
<path d="M20.9805 21.3711V36H6V27.5234L8.5 27.0352V14.9648L6 14.4766V6H20.9805L27.2695 17.5234L33.5 6H48.5V14.4766L46 14.9648V27.0352L48.5 27.5234V36H33.5V21.3711L27.2695 32.1523L20.9805 21.3711Z"/>
<path d="M79.5859 36L78.6094 31.3711H70.9336L69.957 36H59.5078V26.9375L61.7734 26.4883L67.1836 8.5H82.3398L87.7891 26.4883L90.0352 26.9375V36H79.5859ZM72.125 25.1992H77.418L74.7617 14.3984L72.125 25.1992Z"/>
<path d="M131.492 36H119.812C119.448 35.3229 119.07 34.6068 118.68 33.8516C118.289 33.0833 117.911 32.2826 117.547 31.4492C117.182 30.6159 116.837 29.7565 116.512 28.8711C116.199 27.9857 115.932 27.0742 115.711 26.1367H115.066V36H100.965V28.207L103.309 27.7578V16.6445L100.965 16.1953V8.5H116.961C119.083 8.5 120.913 8.59115 122.449 8.77344C123.999 8.95573 125.307 9.22266 126.375 9.57422C127.456 9.92578 128.328 10.3555 128.992 10.8633C129.656 11.3581 130.171 11.9245 130.535 12.5625C130.913 13.1875 131.167 13.8776 131.297 14.6328C131.427 15.388 131.492 16.1888 131.492 17.0352C131.492 17.8945 131.408 18.6758 131.238 19.3789C131.082 20.082 130.796 20.7266 130.379 21.3125C129.962 21.8984 129.389 22.4388 128.66 22.9336C127.944 23.4154 127.026 23.8711 125.906 24.3008C126.141 24.7695 126.486 25.3294 126.941 25.9805C127.41 26.6185 127.918 27.276 128.465 27.9531C129.012 28.6172 129.552 29.2617 130.086 29.8867C130.633 30.5117 131.102 31.0456 131.492 31.4883V36ZM115.066 20.8438C115.783 20.8438 116.427 20.8112 117 20.7461C117.586 20.668 118.081 20.5117 118.484 20.2773C118.901 20.0299 119.22 19.6719 119.441 19.2031C119.663 18.7344 119.773 18.1029 119.773 17.3086C119.773 16.5273 119.663 15.9023 119.441 15.4336C119.22 14.9648 118.901 14.6068 118.484 14.3594C118.081 14.099 117.586 13.9297 117 13.8516C116.427 13.7734 115.783 13.7344 115.066 13.7344V20.8438Z"/>
<path d="M151.328 36.0195L144.023 16.625L141.23 16.1953V8.5H158.379V16.1953L156.367 16.625L159.531 27.25L162.715 16.625L160.684 16.1953V8.5H174.883V16.1953L172.109 16.625L164.805 36.0195H151.328Z"/>
<path d="M199.211 20.5898L204.621 19.4375V25.0039L199.211 23.832V28.1484C199.992 28.1484 200.747 28.0964 201.477 27.9922C202.206 27.875 202.883 27.7188 203.508 27.5234C204.133 27.3281 204.706 27.1003 205.227 26.8398C205.747 26.5794 206.197 26.2995 206.574 26H209.25V36H185.109V28.207L187.453 27.7578V16.6836L185.109 16.2344V8.5H209.25V18.5H206.574C206.197 18.2135 205.747 17.9401 205.227 17.6797C204.706 17.4193 204.133 17.1914 203.508 16.9961C202.883 16.8008 202.206 16.6445 201.477 16.5273C200.747 16.4102 199.992 16.3516 199.211 16.3516V20.5898Z"/>
<path d="M234.477 28.5C235.023 28.5 235.544 28.4284 236.039 28.2852C236.534 28.1289 236.99 27.9336 237.406 27.6992C237.836 27.4518 238.22 27.1849 238.559 26.8984C238.91 26.599 239.216 26.2995 239.477 26H242.738V36H220.395V28.207L222.738 27.7578V16.6445L220.395 16.1953V8.5H236.84V16.1953L234.477 16.6445V28.5Z"/>
<path d="M288.699 21.3711V36H273.719V27.5234L276.219 27.0352V14.9648L273.719 14.4766V6H288.699L294.988 17.5234L301.219 6H316.219V14.4766L313.719 14.9648V27.0352L316.219 27.5234V36H301.219V21.3711L294.988 32.1523L288.699 21.3711Z"/>
<path d="M347.305 36L346.328 31.3711H338.652L337.676 36H327.227V26.9375L329.492 26.4883L334.902 8.5H350.059L355.508 26.4883L357.754 26.9375V36H347.305ZM339.844 25.1992H345.137L342.48 14.3984L339.844 25.1992Z"/>
<path d="M378.078 21.5664V27.7578L380.441 28.1875V36H368.684V28.207L371.027 27.7578V16.6445L368.684 16.1953V8.5H382.785L392.18 23.3242V16.6836L389.836 16.1953V8.5H401.574V16.1953L399.23 16.6445V27.7578L401.574 28.207V36H387.473L378.078 21.5664Z"/>
<path d="M413.363 8.5H429.809V16.1953L427.465 16.6445V27.7578L429.809 28.207V36H413.363V28.207L415.707 27.7578V16.6445L413.363 16.1953V8.5Z"/>
<path d="M460.797 36L459.82 31.3711H452.145L451.168 36H440.719V26.9375L442.984 26.4883L448.395 8.5H463.551L469 26.4883L471.246 26.9375V36H460.797ZM453.336 25.1992H458.629L455.973 14.3984L453.336 25.1992Z"/>
</mask>
<path d="M20.9805 21.3711V36H6V27.5234L8.5 27.0352V14.9648L6 14.4766V6H20.9805L27.2695 17.5234L33.5 6H48.5V14.4766L46 14.9648V27.0352L48.5 27.5234V36H33.5V21.3711L27.2695 32.1523L20.9805 21.3711Z" fill="#FEFEFE"/>
<path d="M79.5859 36L78.6094 31.3711H70.9336L69.957 36H59.5078V26.9375L61.7734 26.4883L67.1836 8.5H82.3398L87.7891 26.4883L90.0352 26.9375V36H79.5859ZM72.125 25.1992H77.418L74.7617 14.3984L72.125 25.1992Z" fill="#FEFEFE"/>
<path d="M131.492 36H119.812C119.448 35.3229 119.07 34.6068 118.68 33.8516C118.289 33.0833 117.911 32.2826 117.547 31.4492C117.182 30.6159 116.837 29.7565 116.512 28.8711C116.199 27.9857 115.932 27.0742 115.711 26.1367H115.066V36H100.965V28.207L103.309 27.7578V16.6445L100.965 16.1953V8.5H116.961C119.083 8.5 120.913 8.59115 122.449 8.77344C123.999 8.95573 125.307 9.22266 126.375 9.57422C127.456 9.92578 128.328 10.3555 128.992 10.8633C129.656 11.3581 130.171 11.9245 130.535 12.5625C130.913 13.1875 131.167 13.8776 131.297 14.6328C131.427 15.388 131.492 16.1888 131.492 17.0352C131.492 17.8945 131.408 18.6758 131.238 19.3789C131.082 20.082 130.796 20.7266 130.379 21.3125C129.962 21.8984 129.389 22.4388 128.66 22.9336C127.944 23.4154 127.026 23.8711 125.906 24.3008C126.141 24.7695 126.486 25.3294 126.941 25.9805C127.41 26.6185 127.918 27.276 128.465 27.9531C129.012 28.6172 129.552 29.2617 130.086 29.8867C130.633 30.5117 131.102 31.0456 131.492 31.4883V36ZM115.066 20.8438C115.783 20.8438 116.427 20.8112 117 20.7461C117.586 20.668 118.081 20.5117 118.484 20.2773C118.901 20.0299 119.22 19.6719 119.441 19.2031C119.663 18.7344 119.773 18.1029 119.773 17.3086C119.773 16.5273 119.663 15.9023 119.441 15.4336C119.22 14.9648 118.901 14.6068 118.484 14.3594C118.081 14.099 117.586 13.9297 117 13.8516C116.427 13.7734 115.783 13.7344 115.066 13.7344V20.8438Z" fill="#FEFEFE"/>
<path d="M151.328 36.0195L144.023 16.625L141.23 16.1953V8.5H158.379V16.1953L156.367 16.625L159.531 27.25L162.715 16.625L160.684 16.1953V8.5H174.883V16.1953L172.109 16.625L164.805 36.0195H151.328Z" fill="#FEFEFE"/>
<path d="M199.211 20.5898L204.621 19.4375V25.0039L199.211 23.832V28.1484C199.992 28.1484 200.747 28.0964 201.477 27.9922C202.206 27.875 202.883 27.7188 203.508 27.5234C204.133 27.3281 204.706 27.1003 205.227 26.8398C205.747 26.5794 206.197 26.2995 206.574 26H209.25V36H185.109V28.207L187.453 27.7578V16.6836L185.109 16.2344V8.5H209.25V18.5H206.574C206.197 18.2135 205.747 17.9401 205.227 17.6797C204.706 17.4193 204.133 17.1914 203.508 16.9961C202.883 16.8008 202.206 16.6445 201.477 16.5273C200.747 16.4102 199.992 16.3516 199.211 16.3516V20.5898Z" fill="#FEFEFE"/>
<path d="M234.477 28.5C235.023 28.5 235.544 28.4284 236.039 28.2852C236.534 28.1289 236.99 27.9336 237.406 27.6992C237.836 27.4518 238.22 27.1849 238.559 26.8984C238.91 26.599 239.216 26.2995 239.477 26H242.738V36H220.395V28.207L222.738 27.7578V16.6445L220.395 16.1953V8.5H236.84V16.1953L234.477 16.6445V28.5Z" fill="#FEFEFE"/>
<path d="M288.699 21.3711V36H273.719V27.5234L276.219 27.0352V14.9648L273.719 14.4766V6H288.699L294.988 17.5234L301.219 6H316.219V14.4766L313.719 14.9648V27.0352L316.219 27.5234V36H301.219V21.3711L294.988 32.1523L288.699 21.3711Z" fill="#FEFEFE"/>
<path d="M347.305 36L346.328 31.3711H338.652L337.676 36H327.227V26.9375L329.492 26.4883L334.902 8.5H350.059L355.508 26.4883L357.754 26.9375V36H347.305ZM339.844 25.1992H345.137L342.48 14.3984L339.844 25.1992Z" fill="#FEFEFE"/>
<path d="M378.078 21.5664V27.7578L380.441 28.1875V36H368.684V28.207L371.027 27.7578V16.6445L368.684 16.1953V8.5H382.785L392.18 23.3242V16.6836L389.836 16.1953V8.5H401.574V16.1953L399.23 16.6445V27.7578L401.574 28.207V36H387.473L378.078 21.5664Z" fill="#FEFEFE"/>
<path d="M413.363 8.5H429.809V16.1953L427.465 16.6445V27.7578L429.809 28.207V36H413.363V28.207L415.707 27.7578V16.6445L413.363 16.1953V8.5Z" fill="#FEFEFE"/>
<path d="M460.797 36L459.82 31.3711H452.145L451.168 36H440.719V26.9375L442.984 26.4883L448.395 8.5H463.551L469 26.4883L471.246 26.9375V36H460.797ZM453.336 25.1992H458.629L455.973 14.3984L453.336 25.1992Z" fill="#FEFEFE"/>
<path d="M20.9805 21.3711V36H6V27.5234L8.5 27.0352V14.9648L6 14.4766V6H20.9805L27.2695 17.5234L33.5 6H48.5V14.4766L46 14.9648V27.0352L48.5 27.5234V36H33.5V21.3711L27.2695 32.1523L20.9805 21.3711Z" stroke="#EC1D25" stroke-width="12" stroke-linejoin="round" mask="url(#path-1-outside-1_2_15)"/>
<path d="M79.5859 36L78.6094 31.3711H70.9336L69.957 36H59.5078V26.9375L61.7734 26.4883L67.1836 8.5H82.3398L87.7891 26.4883L90.0352 26.9375V36H79.5859ZM72.125 25.1992H77.418L74.7617 14.3984L72.125 25.1992Z" stroke="#EC1D25" stroke-width="12" stroke-linejoin="round" mask="url(#path-1-outside-1_2_15)"/>
<path d="M131.492 36H119.812C119.448 35.3229 119.07 34.6068 118.68 33.8516C118.289 33.0833 117.911 32.2826 117.547 31.4492C117.182 30.6159 116.837 29.7565 116.512 28.8711C116.199 27.9857 115.932 27.0742 115.711 26.1367H115.066V36H100.965V28.207L103.309 27.7578V16.6445L100.965 16.1953V8.5H116.961C119.083 8.5 120.913 8.59115 122.449 8.77344C123.999 8.95573 125.307 9.22266 126.375 9.57422C127.456 9.92578 128.328 10.3555 128.992 10.8633C129.656 11.3581 130.171 11.9245 130.535 12.5625C130.913 13.1875 131.167 13.8776 131.297 14.6328C131.427 15.388 131.492 16.1888 131.492 17.0352C131.492 17.8945 131.408 18.6758 131.238 19.3789C131.082 20.082 130.796 20.7266 130.379 21.3125C129.962 21.8984 129.389 22.4388 128.66 22.9336C127.944 23.4154 127.026 23.8711 125.906 24.3008C126.141 24.7695 126.486 25.3294 126.941 25.9805C127.41 26.6185 127.918 27.276 128.465 27.9531C129.012 28.6172 129.552 29.2617 130.086 29.8867C130.633 30.5117 131.102 31.0456 131.492 31.4883V36ZM115.066 20.8438C115.783 20.8438 116.427 20.8112 117 20.7461C117.586 20.668 118.081 20.5117 118.484 20.2773C118.901 20.0299 119.22 19.6719 119.441 19.2031C119.663 18.7344 119.773 18.1029 119.773 17.3086C119.773 16.5273 119.663 15.9023 119.441 15.4336C119.22 14.9648 118.901 14.6068 118.484 14.3594C118.081 14.099 117.586 13.9297 117 13.8516C116.427 13.7734 115.783 13.7344 115.066 13.7344V20.8438Z" stroke="#EC1D25" stroke-width="12" stroke-linejoin="round" mask="url(#path-1-outside-1_2_15)"/>
<path d="M151.328 36.0195L144.023 16.625L141.23 16.1953V8.5H158.379V16.1953L156.367 16.625L159.531 27.25L162.715 16.625L160.684 16.1953V8.5H174.883V16.1953L172.109 16.625L164.805 36.0195H151.328Z" stroke="#EC1D25" stroke-width="12" stroke-linejoin="round" mask="url(#path-1-outside-1_2_15)"/>
<path d="M199.211 20.5898L204.621 19.4375V25.0039L199.211 23.832V28.1484C199.992 28.1484 200.747 28.0964 201.477 27.9922C202.206 27.875 202.883 27.7188 203.508 27.5234C204.133 27.3281 204.706 27.1003 205.227 26.8398C205.747 26.5794 206.197 26.2995 206.574 26H209.25V36H185.109V28.207L187.453 27.7578V16.6836L185.109 16.2344V8.5H209.25V18.5H206.574C206.197 18.2135 205.747 17.9401 205.227 17.6797C204.706 17.4193 204.133 17.1914 203.508 16.9961C202.883 16.8008 202.206 16.6445 201.477 16.5273C200.747 16.4102 199.992 16.3516 199.211 16.3516V20.5898Z" stroke="#EC1D25" stroke-width="12" stroke-linejoin="round" mask="url(#path-1-outside-1_2_15)"/>
<path d="M234.477 28.5C235.023 28.5 235.544 28.4284 236.039 28.2852C236.534 28.1289 236.99 27.9336 237.406 27.6992C237.836 27.4518 238.22 27.1849 238.559 26.8984C238.91 26.599 239.216 26.2995 239.477 26H242.738V36H220.395V28.207L222.738 27.7578V16.6445L220.395 16.1953V8.5H236.84V16.1953L234.477 16.6445V28.5Z" stroke="#EC1D25" stroke-width="12" stroke-linejoin="round" mask="url(#path-1-outside-1_2_15)"/>
<path d="M288.699 21.3711V36H273.719V27.5234L276.219 27.0352V14.9648L273.719 14.4766V6H288.699L294.988 17.5234L301.219 6H316.219V14.4766L313.719 14.9648V27.0352L316.219 27.5234V36H301.219V21.3711L294.988 32.1523L288.699 21.3711Z" stroke="#EC1D25" stroke-width="12" stroke-linejoin="round" mask="url(#path-1-outside-1_2_15)"/>
<path d="M347.305 36L346.328 31.3711H338.652L337.676 36H327.227V26.9375L329.492 26.4883L334.902 8.5H350.059L355.508 26.4883L357.754 26.9375V36H347.305ZM339.844 25.1992H345.137L342.48 14.3984L339.844 25.1992Z" stroke="#EC1D25" stroke-width="12" stroke-linejoin="round" mask="url(#path-1-outside-1_2_15)"/>
<path d="M378.078 21.5664V27.7578L380.441 28.1875V36H368.684V28.207L371.027 27.7578V16.6445L368.684 16.1953V8.5H382.785L392.18 23.3242V16.6836L389.836 16.1953V8.5H401.574V16.1953L399.23 16.6445V27.7578L401.574 28.207V36H387.473L378.078 21.5664Z" stroke="#EC1D25" stroke-width="12" stroke-linejoin="round" mask="url(#path-1-outside-1_2_15)"/>
<path d="M413.363 8.5H429.809V16.1953L427.465 16.6445V27.7578L429.809 28.207V36H413.363V28.207L415.707 27.7578V16.6445L413.363 16.1953V8.5Z" stroke="#EC1D25" stroke-width="12" stroke-linejoin="round" mask="url(#path-1-outside-1_2_15)"/>
<path d="M460.797 36L459.82 31.3711H452.145L451.168 36H440.719V26.9375L442.984 26.4883L448.395 8.5H463.551L469 26.4883L471.246 26.9375V36H460.797ZM453.336 25.1992H458.629L455.973 14.3984L453.336 25.1992Z" stroke="#EC1D25" stroke-width="12" stroke-linejoin="round" mask="url(#path-1-outside-1_2_15)"/>
</svg>
